Coordinates
version=1
nRows=11
nColumns=40
inDegrees=yes

Units are S.I. units (second, meters, Newtons, ...)
Angles are in degrees.

endheader
time	pelvis_tilt	pelvis_list	pelvis_rotation	pelvis_tx	pelvis_ty	pelvis_tz	hip_flexion_r	hip_adduction_r	hip_rotation_r	knee_angle_r	knee_angle_r_beta	ankle_angle_r	subtalar_angle_r	mtp_angle_r	hip_flexion_l	hip_adduction_l	hip_rotation_l	knee_angle_l	knee_angle_l_beta	ankle_angle_l	subtalar_angle_l	mtp_angle_l	lumbar_extension	lumbar_bending	lumbar_rotation	arm_flex_r	arm_add_r	arm_rot_r	elbow_flex_r	pro_sup_r	wrist_flex_r	wrist_dev_r	arm_flex_l	arm_add_l	arm_rot_l	elbow_flex_l	pro_sup_l	wrist_flex_l	wrist_dev_l
     10.50000000	     -2.45666662	     17.74469795	     82.78961971	      0.46681446	      1.03470558	     -0.85632586	    -18.31932148	     -0.89842259	      5.57379550	      9.52574332	      0.16625558	     12.95132628	      0.00000000	      0.00000000	      4.11505316	     -3.58582871	    -13.81265952	     44.69750497	      0.78011863	      7.88747894	      0.00000000	      0.00000000	    -47.79932691	     -2.93350216	      8.28189024	     12.77665723	    -18.51363264	      9.30244202	    145.34674952	     87.85819492	      0.00000000	      0.00000000	      2.95034129	     -9.92449964	      2.98371401	    141.76795324	     85.54398175	      0.00000000	      0.00000000
     10.51000000	     -2.78773008	     17.72415171	     82.68482396	      0.46661365	      1.03631855	     -0.85523774	    -19.44276827	     -1.42796231	      5.46628397	      8.57622784	      0.14968341	     12.66597422	      0.00000000	      0.00000000	      4.13328394	     -3.12157316	    -14.13417165	     40.98979074	      0.71540681	      7.91838144	      0.00000000	      0.00000000	    -47.83971454	     -3.63021195	      8.41372340	     12.41914597	    -17.93284765	      8.93729616	    145.36200436	     87.83072800	      0.00000000	      0.00000000	      2.59288607	     -9.24660236	      2.55383195	    141.74463950	     85.57149615	      0.00000000	      0.00000000
     10.52000000	     -2.89778521	     17.07907495	     82.78190075	      0.46573565	      1.03651764	     -0.85369237	    -19.70584715	     -1.56614690	      5.40106894	      8.01323544	      0.13985734	     12.27300415	      0.00000000	      0.00000000	      4.98920862	     -2.84141340	    -13.86818459	     37.53550524	      0.65511815	      8.07657598	      0.00000000	      0.00000000	    -47.26946473	     -3.89071783	      8.54281196	     12.10198642	    -17.42913071	      8.58549290	    145.35468944	     87.73996250	      0.00000000	      0.00000000	      2.31154364	     -8.48999170	      2.12314443	    141.65147470	     85.47790503	      0.00000000	      0.00000000
     10.53000000	     -3.24471810	     17.70758638	     82.72893089	      0.46487934	      1.03824743	     -0.85387116	    -21.61898433	     -2.23684803	      4.87364129	      7.01981574	      0.12251890	     11.62589820	      0.00000000	      0.00000000	      3.75184283	     -1.96347456	    -13.90014764	     32.98052943	      0.57561883	      7.29753386	      0.00000000	      0.00000000	    -47.80194214	     -4.55634458	      8.55414042	     11.63871492	    -17.06993312	      8.04237258	    145.43527991	     87.83081075	      0.00000000	      0.00000000	      1.93868733	     -7.88880408	      1.82561758	    141.63482069	     85.71014832	      0.00000000	      0.00000000
     10.54000000	     -3.28108089	     17.68855999	     82.77775596	      0.46357601	      1.03864529	     -0.85338853	    -22.59372958	     -2.43738197	      4.54865653	      6.46913415	      0.11290769	     11.32492429	      0.00000000	      0.00000000	      3.38032076	     -1.43445638	    -13.35129530	     28.81591703	      0.50293263	      6.63292101	      0.00000000	      0.00000000	    -47.74710112	     -4.76626262	      8.58855646	     11.37280347	    -16.82009010	      7.58777484	    145.43881206	     87.81454074	      0.00000000	      0.00000000	      1.59971638	     -7.27809793	      1.49347530	    141.59268743	     85.79566714	      0.00000000	      0.00000000
     10.55000000	     -3.25624019	     17.54350913	     82.96289595	      0.46185024	      1.03828801	     -0.85296531	    -23.32000306	     -2.51466497	      4.07320908	      6.19901872	      0.10819329	     11.15672113	      0.00000000	      0.00000000	      3.07259282	     -0.88146580	    -12.15277237	     24.67588115	      0.43067537	      5.86185489	      0.00000000	      0.00000000	    -47.52214993	     -4.78426806	      8.55023137	     11.09527229	    -16.65721748	      7.17832154	    145.45121786	     87.80266098	      0.00000000	      0.00000000	      1.31502306	     -6.70559012	      1.26012809	    141.50791921	     85.80976401	      0.00000000	      0.00000000
     10.56000000	     -3.16704465	     17.41765316	     83.12423340	      0.46014571	      1.03747683	     -0.85278559	    -23.98197660	     -2.52863591	      3.68153455	      6.15722513	      0.10746385	     11.00541360	      0.00000000	      0.00000000	      2.56154262	     -0.34270662	    -10.49165657	     20.51173296	      0.35799728	      5.08458714	      0.00000000	      0.00000000	    -47.25936678	     -4.75666985	      8.52147370	     10.82053485	    -16.56170514	      6.76317336	    145.46661204	     87.79793647	      0.00000000	      0.00000000	      1.05605884	     -6.24068755	      1.10082871	    141.40400902	     85.78501229	      0.00000000	      0.00000000
     10.57000000	     -2.91138977	     17.42293417	     83.11732731	      0.45878925	      1.03651823	     -0.85289150	    -24.67814280	     -2.42204941	      3.52720323	      6.36464723	      0.11108405	     11.02937229	      0.00000000	      0.00000000	      1.74250770	     -0.04617391	     -8.96911853	     16.50994194	      0.28815285	      4.50495810	      0.00000000	      0.00000000	    -47.08061453	     -4.70192664	      8.61028391	     10.59593700	    -16.51280938	      6.40597712	    145.47303900	     87.79481206	      0.00000000	      0.00000000	      0.81333799	     -5.83346723	      0.97299363	    141.31622292	     85.77445557	      0.00000000	      0.00000000
     10.58000000	     -2.59268301	     17.47428274	     83.06627497	      0.45753154	      1.03516609	     -0.85319871	    -25.32507372	     -2.26351639	      3.46464306	      6.78673183	      0.11845082	     11.08620163	      0.00000000	      0.00000000	      0.80653898	      0.09600128	     -7.65674330	     12.90510916	      0.22523665	      4.23700737	      0.00000000	      0.00000000	    -46.89033048	     -4.61934503	      8.70104539	     10.42378570	    -16.52587554	      6.15169613	    145.45808056	     87.80898548	      0.00000000	      0.00000000	      0.59550683	     -5.50428844	      0.90716815	    141.20221026	     85.77782045	      0.00000000	      0.00000000
     10.59000000	     -1.99947245	     17.13473876	     83.14357227	      0.45617914	      1.03277161	     -0.85340190	    -25.43993427	     -1.68928030	      3.48227330	      7.45548454	      0.13012275	     11.17261707	      0.00000000	      0.00000000	      0.62267075	     -0.27127257	     -6.65887716	     10.46267036	      0.18260805	      4.66855340	      0.00000000	      0.00000000	    -46.29128515	     -4.16851731	      8.75733412	     10.33933800	    -16.56052528	      6.05522376	    145.34505515	     87.78188686	      0.00000000	      0.00000000	      0.31753520	     -5.25454292	      0.86250865	    141.11495754	     85.71281642	      0.00000000	      0.00000000
     10.60000000	     -1.65831702	     17.43772809	     83.00367897	      0.45517070	      1.03104956	     -0.85383284	    -25.97031781	     -1.55778409	      3.69520604	      8.64101143	      0.15081410	     11.83135545	      0.00000000	      0.00000000	     -0.60205655	     -0.21125664	     -5.48332232	      7.80783893	      0.13627250	      4.77556554	      0.00000000	      0.00000000	    -46.28953766	     -4.14842331	      8.79740531	     10.36944412	    -16.64922511	      5.96719492	    145.34206559	     87.80481178	      0.00000000	      0.00000000	      0.26363677	     -5.16910026	      0.92509693	    140.99429462	     85.73411517	      0.00000000	      0.00000000
